<?xml version="1.0" encoding="UTF-8"?>
<svg xmlns="http://www.w3.org/2000/svg" version="1.1" viewBox="0 0 64 64">
  <defs>
    <style>
      .cls-1 {
        fill: #d2af6d;
      }

      .cls-2 {
        fill: #969696;
      }
    </style>
  </defs>
  <!-- Generator: Adobe Illustrator 28.7.1, SVG Export Plug-In . SVG Version: 1.2.0 Build 142)  -->
  <g>
    <g id="Layer_1">
      <g>
        <path class="cls-2" d="M0,32.1c0-3.4,0-6.9,0-10.3,0-5.5,2.6-9.4,7.6-11.7,6.3-3,12.6-5.9,18.9-8.8,3.6-1.7,7.2-1.7,10.8,0,6.4,2.9,12.7,5.9,19.1,8.9,4.8,2.3,7.4,6.1,7.5,11.4.1,7.1.1,14.2,0,21.3,0,5.2-2.7,9.1-7.4,11.3-6.4,3-12.8,5.9-19.2,8.8-2,.9-4.1,1.3-6.2,1.1-1.6-.1-3.1-.5-4.5-1.2-6.3-2.9-12.7-5.7-19-8.7C2.7,51.8.1,47.9,0,42.4c0-3.4,0-6.8,0-10.3ZM59.5,21.5c-.3.1-.5.2-.6.3-8,3.8-16.1,7.6-24.2,11.4-.4.2-.5.4-.5.9,0,8.2,0,16.4,0,24.6,0,.2,0,.4,0,.7.6-.2,1.1-.5,1.7-.7,6.1-2.8,12.2-5.6,18.4-8.4,3.5-1.6,5.2-4.3,5.2-8.1,0-6.6,0-13.2,0-19.7v-.9ZM4.5,21.4c0,.3,0,.4,0,.6,0,6.8,0,13.7,0,20.5,0,3.6,1.8,6.1,5,7.6,6.3,2.9,12.6,5.7,18.9,8.6.4.2.8.3,1.3.5,0-.3,0-.4,0-.6,0-8.2,0-16.4,0-24.6,0-.5-.2-.7-.6-.9-6.9-3.3-13.8-6.5-20.7-9.8-1.3-.6-2.6-1.2-4-1.9ZM44,23.8c-.2-.1-.3-.2-.4-.2-2-1-4-1.9-5.9-2.9-6.7-3.3-13.4-6.6-20.1-9.8-.3-.1-.6-.2-.9,0-2.6,1.2-5.2,2.4-7.8,3.6-1.2.6-2.2,1.5-3,2.7.1,0,.2.1.2.1,8.5,4,17,8.1,25.5,12.1.2.1.6,0,.9,0,2.7-1.3,5.4-2.5,8.1-3.8,1.1-.5,2.3-1.1,3.5-1.7ZM58.1,17.1c-.9-1.3-2-2.2-3.3-2.9-6.5-3-12.9-6-19.4-9-2.3-1.1-4.6-1-6.9,0-1.8.8-3.6,1.7-5.4,2.5-.2,0-.4.2-.7.4,1.6.8,3.2,1.6,4.7,2.3,7.2,3.5,14.4,7,21.6,10.6.3.1.7.3.9.1,2.8-1.3,5.7-2.7,8.6-4Z"/>
        <path class="cls-1" d="M23,50.6c-.3-.1-.7-.2-1-.3-1.9-.8-3.7-1.7-5.6-2.5-1.3-.6-1.8-1.8-1.3-3,.5-1.2,1.8-1.6,3.1-1.1,1.9.9,3.9,1.7,5.8,2.6,1,.5,1.5,1.5,1.2,2.5-.3,1-1.1,1.7-2.2,1.7Z"/>
      </g>
    </g>
  </g>
</svg>