<?xml version="1.0" encoding="UTF-8"?>
<svg xmlns="http://www.w3.org/2000/svg" version="1.1" viewBox="0 0 64 64">
  <defs>
    <style>
      .cls-1 {
        fill: #d2af6d;
      }

      .cls-2 {
        fill: #969696;
      }
    </style>
  </defs>
  <!-- Generator: Adobe Illustrator 28.7.1, SVG Export Plug-In . SVG Version: 1.2.0 Build 142)  -->
  <g>
    <g id="Layer_1">
      <g>
        <path class="cls-2" d="M19.2,14.4c-.3-4.5,1-8.4,4.5-11.3C26.1,1,28.9,0,32,0c3.8,0,7,1.5,9.6,4.3,2.5,2.8,3.4,6.2,3.2,10.1,1.6,0,3.1,0,4.7,0,3.2,0,5.9,2.6,6.2,5.8.1,1.5.2,3,.2,4.5.3,7.3.7,14.6,1,21.9.2,3.6.4,7.1.5,10.7.1,3.8-2.7,6.7-6.5,6.7-12.6,0-25.2,0-37.7,0-3.8,0-6.7-2.9-6.5-6.7.3-7.6.7-15.1,1.1-22.7.2-4.2.4-8.4.6-12.7,0-.9,0-1.8.3-2.6.6-2.8,3.2-4.8,6-4.9,1.5,0,3,0,4.7,0ZM32,59.7c6.2,0,12.5,0,18.7,0,1.6,0,2.4-.9,2.4-2.5,0-.7,0-1.4,0-2.1-.3-7.2-.7-14.4-1-21.6-.2-4.2-.4-8.5-.6-12.7,0-1.5-.9-2.3-2.5-2.3-3.3,0-6.7,0-10,0-8,0-16,0-23.9,0-1.5,0-2.3.7-2.4,2.3-.1,1.7-.2,3.5-.2,5.2-.5,10.3-1,20.7-1.5,31,0,1.8.7,2.6,2.5,2.6,6.2,0,12.4,0,18.6,0ZM40.5,14.4c.3-3.9-.9-7-4.3-9-3.1-1.8-6.3-1.6-9.3.6-2.8,2.1-3.7,5-3.4,8.4h17Z"/>
        <path class="cls-1" d="M32,35.9c-6,0-11.1-4.1-12.5-9.9-.3-1.2,0-2.1,1-2.6.8-.5,2-.3,2.6.4.3.4.5.8.6,1.3,1,3.4,3.1,5.6,6.6,6.4,4.3,1,8.8-1.7,10-6,0-.2,0-.4.1-.6.3-1.3,1.4-2,2.7-1.7,1.2.3,1.8,1.4,1.5,2.7-1.1,4.3-3.6,7.3-7.7,9-1.6.7-3.2.9-4.9.9Z"/>
      </g>
    </g>
  </g>
</svg>